<?xml version="1.0" standalone="no"?>
<!DOCTYPE svg PUBLIC "-//W3C//DTD SVG 20010904//EN"
 "http://www.w3.org/TR/2001/REC-SVG-20010904/DTD/svg10.dtd">
<svg version="1.0" xmlns="http://www.w3.org/2000/svg"
 width="1500.000000pt" height="1500.000000pt" viewBox="0 0 1500.000000 1500.000000"
 preserveAspectRatio="xMidYMid meet">
<metadata>
Created by potrace 1.16, written by Peter Selinger 2001-2019
</metadata>
<g transform="translate(0.000000,1500.000000) scale(0.100000,-0.100000)"
fill="#000000" stroke="none">
<path d="M7210 14908 c0 -51 3 -184 7 -295 l6 -203 63 0 63 0 -4 48 c-3 26 -8
158 -11 295 l-6 247 -59 0 -59 0 0 -92z"/>
<path d="M7926 14923 c-71 -189 -186 -507 -183 -509 1 -1 29 -4 61 -6 l59 -3
21 58 21 59 83 -4 c94 -3 98 -6 108 -85 l6 -53 63 0 62 0 -38 183 c-21 100
-48 232 -60 292 -12 61 -26 116 -32 123 -6 7 -35 12 -77 12 l-68 0 -26 -67z"/>
<path d="M6425 14933 c-22 -3 -44 -8 -48 -12 -6 -7 59 -577 68 -588 2 -4 366
45 371 50 2 2 1 25 -2 50 -8 55 -1 53 -153 32 -57 -8 -105 -14 -107 -12 -1 1
-14 94 -28 207 -35 275 -36 280 -49 278 -7 -1 -30 -3 -52 -5z"/>
<path d="M5711 14791 c-105 -27 -186 -52 -189 -60 -4 -13 126 -551 137 -563 9
-10 384 86 388 99 5 15 -16 93 -25 93 -4 0 -66 -16 -139 -34 l-131 -33 -17 68
c-9 37 -14 72 -11 77 3 5 41 17 85 27 44 10 84 21 89 24 13 8 -7 101 -22 101
-6 0 -45 -9 -86 -20 -41 -11 -80 -20 -87 -20 -7 0 -17 19 -23 43 -6 23 -13 49
-16 58 -4 14 18 22 129 50 l133 32 -10 48 c-6 26 -13 49 -16 52 -3 2 -88 -17
-189 -42z"/>
<path d="M9343 14726 c-44 -37 -56 -75 -51 -156 4 -51 2 -70 -7 -70 -27 0 -93
-60 -109 -99 -35 -88 -13 -164 60 -210 56 -36 120 -48 183 -33 46 11 46 10 86
-28 22 -21 52 -42 66 -45 24 -6 27 -3 39 40 l13 46 -34 28 -33 28 52 59 c29
32 52 62 52 66 0 4 -18 19 -41 33 l-40 26 -42 -46 -41 -47 -27 53 c-16 30 -28
59 -29 66 0 6 20 21 45 33 55 26 92 69 101 115 9 49 -1 80 -40 123 -32 34 -38
36 -103 40 -63 4 -72 2 -100 -22z"/>
<path d="M4845 14521 c-160 -57 -205 -77 -205 -87 0 -10 198 -542 205 -551 5
-7 264 100 295 122 54 37 74 80 68 143 -7 71 -45 127 -98 143 -22 7 -40 13
-40 14 0 2 7 16 15 31 30 57 11 130 -44 177 -27 23 -42 27 -89 27 -31 -1 -79
-9 -107 -19z m117 -108 c23 -21 23 -65 0 -86 -17 -16 -63 -37 -109 -51 -19 -6
-24 0 -42 50 -12 31 -19 59 -16 63 13 12 91 39 119 40 16 1 38 -6 48 -16z m80
-204 c30 -16 51 -72 37 -103 -12 -26 -27 -35 -104 -64 l-49 -19 -28 70 c-15
39 -25 73 -22 76 8 8 117 49 132 50 7 1 22 -4 34 -10z"/>
<path d="M10732 14190 c-44 -27 -72 -76 -72 -127 0 -59 9 -77 84 -172 75 -94
85 -120 62 -156 -44 -66 -176 8 -176 98 0 19 -7 26 -31 31 -71 14 -79 10 -79
-36 0 -110 131 -228 253 -228 84 0 167 84 167 167 0 61 -18 97 -94 188 -66 80
-80 117 -54 143 41 41 137 -18 138 -84 0 -30 3 -32 46 -39 26 -3 53 -9 60 -12
10 -4 14 3 14 23 0 83 -54 165 -134 203 -56 28 -139 28 -184 1z"/>
<path d="M3582 13909 c-28 -20 -41 -36 -38 -45 3 -8 46 -78 96 -155 49 -77 90
-142 90 -145 0 -3 -86 39 -190 92 l-190 98 -33 -17 c-17 -10 -42 -26 -55 -35
l-22 -17 151 -235 c83 -129 156 -241 164 -249 11 -11 20 -9 59 14 25 15 46 30
46 33 0 4 -47 79 -104 167 -57 88 -103 161 -102 162 1 2 92 -44 202 -101 l199
-104 40 24 c22 13 44 29 48 36 6 9 -43 94 -150 260 -87 136 -160 247 -163 247
-3 0 -24 -14 -48 -30z"/>
<path d="M11429 13678 c-57 -83 -114 -170 -125 -192 -51 -99 -39 -175 40 -252
92 -89 204 -108 289 -48 27 19 80 86 158 199 65 94 118 175 118 181 1 7 -11
20 -26 29 -79 51 -59 64 -184 -120 -111 -164 -155 -215 -186 -215 -27 0 -83
32 -104 59 -34 43 -20 77 105 261 64 93 116 173 116 178 0 5 -11 17 -25 26
-81 52 -60 64 -176 -106z"/>
<path d="M7350 13740 c-1156 -46 -2273 -406 -3240 -1044 -1144 -755 -2002
-1833 -2480 -3116 -366 -981 -482 -2089 -329 -3145 161 -1116 624 -2180 1333
-3064 135 -168 206 -249 206 -235 0 5 -30 55 -66 110 -579 877 -947 1810
-1073 2724 -41 299 -46 386 -46 805 1 427 8 540 56 870 141 976 523 1918 1097
2707 955 1309 2375 2202 4021 2528 491 97 879 134 1406 134 356 0 520 -9 840
-45 985 -111 2014 -449 2818 -928 76 -46 141 -81 143 -78 7 6 -188 186 -321
298 -991 825 -2188 1328 -3465 1454 -150 15 -579 36 -670 33 -25 -1 -128 -4
-230 -8z"/>
<path d="M2692 13269 c-29 -24 -52 -48 -52 -55 0 -18 242 -564 249 -564 3 1
25 18 49 38 l43 38 -26 57 c-14 32 -25 59 -25 62 0 2 30 29 66 59 l65 56 46
-35 c25 -19 51 -35 58 -35 7 0 31 17 54 38 l42 37 -248 169 c-136 93 -253 170
-259 173 -6 2 -34 -15 -62 -38z"/>
<path d="M12115 13033 c-104 -118 -190 -218 -190 -222 0 -4 19 -24 43 -45 l43
-39 67 70 c60 64 72 72 115 78 27 3 50 5 52 3 2 -2 -11 -64 -30 -138 -19 -74
-35 -142 -35 -150 0 -23 90 -96 99 -81 5 7 28 95 52 197 28 123 49 188 59 193
8 5 70 19 138 32 67 12 122 25 122 28 0 4 -23 25 -50 49 l-50 43 -148 -30
c-81 -16 -148 -28 -149 -27 -1 1 34 42 78 91 l79 90 -42 37 c-24 21 -47 38
-53 38 -5 -1 -95 -98 -200 -217z"/>
<path d="M2132 12747 l-42 -42 163 -160 c89 -88 186 -183 214 -210 l53 -49 40
39 c22 21 40 42 40 46 0 7 -407 412 -418 417 -4 1 -27 -17 -50 -41z"/>
<path d="M8885 12546 c1186 -300 2261 -1026 3010 -2031 541 -725 883 -1584
995 -2500 163 -1328 -177 -2640 -950 -3663 -140 -186 -243 -305 -415 -481
-406 -415 -826 -719 -1350 -976 -351 -173 -650 -282 -1039 -378 -115 -28 -204
-53 -198 -55 6 -2 64 4 129 13 1406 194 2622 902 3453 2010 564 753 907 1618
1021 2578 27 223 37 705 20 938 -49 661 -208 1250 -501 1844 -261 533 -569
957 -996 1375 -595 583 -1305 992 -2099 1209 -361 99 -795 161 -1115 160
l-135 0 170 -43z"/>
<path d="M12788 12401 c-147 -70 -271 -130 -274 -134 -3 -3 10 -26 30 -51 l37
-45 61 29 60 29 58 -66 59 -66 -36 -53 -36 -54 38 -46 c31 -38 40 -43 50 -32
21 21 325 499 325 509 0 11 -90 109 -99 109 -3 -1 -126 -58 -273 -129z"/>
<path d="M1692 12239 c-35 -23 -206 -234 -200 -248 7 -19 451 -362 462 -358 7
3 27 23 45 46 l32 40 -91 72 c-49 40 -90 75 -90 78 0 3 11 19 24 36 l23 29
115 -27 c64 -15 122 -27 131 -27 19 0 92 89 81 100 -5 4 -69 20 -141 35 -129
27 -132 29 -127 52 15 59 -31 144 -97 179 -42 21 -127 18 -167 -7z m132 -125
c29 -29 32 -45 15 -77 -17 -32 -69 -97 -78 -97 -4 0 -32 19 -63 43 l-55 43 34
44 c19 25 41 51 50 58 27 20 68 14 97 -14z"/>
<path d="M13315 11778 c-126 -87 -236 -163 -244 -167 -11 -7 -7 -18 19 -55 20
-30 37 -45 46 -42 8 3 76 48 152 99 75 52 142 97 149 101 16 9 -3 -36 -72
-174 -29 -58 -65 -133 -80 -167 l-27 -62 28 -46 c16 -25 33 -45 37 -45 6 0
456 303 487 327 5 4 -23 57 -45 87 -13 17 -23 12 -169 -88 -86 -59 -156 -104
-156 -102 0 3 41 89 90 192 50 103 90 191 90 196 0 11 -63 108 -70 107 -3 -1
-108 -73 -235 -161z"/>
<path d="M1187 11563 c-84 -134 -177 -291 -177 -299 0 -10 499 -318 505 -312
12 12 205 334 205 343 0 8 -70 55 -83 55 -2 0 -37 -54 -77 -120 -45 -74 -77
-117 -84 -113 -69 42 -116 75 -112 81 75 121 96 157 96 162 0 8 -88 55 -93 50
-2 -3 -25 -40 -51 -82 -26 -43 -49 -78 -52 -78 -2 0 -26 14 -54 31 l-50 31 22
36 c12 21 44 73 71 116 54 88 55 85 -15 122 -27 14 -28 13 -51 -23z"/>
<path d="M6670 11168 c-144 -18 -431 -70 -569 -102 -239 -57 -560 -148 -625
-177 -27 -13 -179 -211 -279 -364 -619 -953 -823 -2201 -541 -3319 45 -180 83
-299 151 -471 50 -126 194 -425 227 -471 8 -10 -6 49 -29 132 -72 251 -117
473 -152 754 -25 207 -25 763 0 970 116 930 483 1740 1089 2400 137 149 316
311 485 438 79 60 285 197 307 205 27 10 -5 12 -64 5z"/>
<path d="M697 10672 c-48 -104 -87 -192 -87 -195 0 -7 74 -47 87 -47 5 0 21
29 37 65 15 36 32 65 36 65 4 0 103 -45 220 -100 118 -55 217 -100 220 -100 8
0 50 92 50 107 -1 4 -38 25 -83 45 -45 21 -144 67 -219 102 l-138 65 30 66
c17 37 30 69 30 71 0 4 -86 44 -94 44 -1 0 -41 -85 -89 -188z"/>
<path d="M4945 10676 c-38 -17 -136 -65 -217 -105 -143 -71 -149 -75 -250
-179 -136 -141 -217 -242 -349 -441 -117 -175 -272 -472 -348 -666 -282 -718
-351 -1497 -200 -2250 216 -1080 902 -2013 1899 -2584 846 -485 1792 -653
2760 -490 382 64 819 209 1181 390 112 56 289 156 289 163 0 2 -41 -12 -91
-31 -567 -213 -1409 -302 -2066 -218 -1780 227 -3202 1584 -3467 3308 -66 424
-60 854 15 1237 133 679 447 1338 872 1833 32 37 54 67 50 66 -4 0 -39 -15
-78 -33z"/>
<path d="M14055 10473 c-181 -81 -331 -147 -333 -148 -1 -1 7 -23 18 -48 l21
-46 57 25 c31 14 181 80 332 146 151 67 277 123 279 124 5 4 -33 94 -39 93 -3
0 -153 -66 -335 -146z"/>
<path d="M417 9988 c-9 -29 -15 -53 -14 -54 1 -1 82 -27 180 -58 97 -31 177
-58 177 -60 0 -1 -95 -23 -212 -47 l-211 -44 -14 -33 c-7 -18 -16 -46 -19 -62
l-6 -29 268 -87 c148 -48 275 -87 283 -88 8 -1 21 21 32 51 l17 52 -190 63
-191 64 209 43 c115 24 218 47 230 51 19 7 44 65 44 101 0 10 -88 43 -272 102
-150 48 -278 88 -284 87 -5 0 -18 -23 -27 -52z"/>
<path d="M11921 9615 c-1 -5 10 -66 23 -135 229 -1180 -108 -2322 -939 -3179
-710 -732 -1685 -1175 -2779 -1261 -165 -13 -536 -13 -702 0 -696 55 -1357
264 -1908 604 -158 98 -154 86 19 -53 526 -423 1169 -719 1855 -855 294 -58
438 -70 815 -71 223 0 390 5 460 13 933 109 1730 458 2425 1062 206 178 461
452 604 648 21 29 40 51 42 49 5 -5 -57 -150 -125 -292 -382 -798 -1028 -1505
-1791 -1965 -975 -587 -2129 -798 -3250 -594 -415 76 -863 225 -1243 415 -462
232 -864 525 -1238 906 -244 248 -404 446 -586 725 -48 75 -94 144 -101 154
-46 70 165 -332 241 -459 586 -968 1501 -1701 2567 -2057 1217 -406 2549 -308
3687 272 686 349 1286 868 1732 1496 105 148 253 388 285 462 15 36 34 79 41
95 15 33 47 117 93 240 94 250 189 641 232 950 37 266 44 371 44 675 1 501
-43 831 -178 1335 -33 122 -143 435 -186 530 -5 11 -20 47 -34 80 -33 79 -105
223 -105 210z"/>
<path d="M14465 9396 c-143 -35 -272 -65 -286 -69 -25 -6 -26 -9 -19 -43 5
-19 10 -38 13 -40 2 -2 100 18 218 45 117 28 214 49 215 48 2 -1 -87 -54 -196
-117 -175 -101 -199 -118 -199 -140 -1 -14 3 -30 7 -37 5 -8 82 -17 232 -28
124 -9 231 -17 239 -18 7 -1 -71 -21 -175 -45 -104 -24 -205 -48 -225 -53
l-37 -9 10 -40 c6 -22 13 -40 17 -40 9 0 562 129 578 135 9 3 8 17 -2 60 -7
31 -14 58 -16 60 -4 3 -404 35 -447 35 -9 0 74 54 185 120 l201 120 -8 32 c-4
18 -11 45 -14 61 -4 15 -12 26 -19 26 -6 -1 -129 -29 -272 -63z"/>
<path d="M136 8944 c-20 -108 -36 -197 -34 -198 2 -2 127 -26 278 -55 151 -29
282 -54 291 -57 12 -3 22 31 53 197 21 110 37 202 35 203 -2 2 -25 6 -50 10
-34 5 -48 3 -51 -6 -3 -7 -16 -70 -29 -139 l-23 -125 -71 14 c-38 8 -72 16
-74 18 -2 1 4 44 14 94 9 51 14 94 11 97 -7 7 -90 22 -95 18 -1 -2 -9 -37 -17
-77 -24 -127 -16 -117 -76 -105 -29 5 -57 13 -61 17 -7 7 22 195 39 251 3 13
-5 18 -33 23 -21 4 -45 9 -54 12 -12 3 -22 -30 -53 -192z"/>
<path d="M5290 7725 l0 -1045 340 0 340 0 2 311 3 310 342 -404 c189 -222 378
-449 421 -503 142 -179 237 -247 390 -279 57 -12 137 -15 377 -13 l305 3 -705
830 c-387 457 -703 833 -702 837 1 4 220 229 487 500 l485 493 -295 3 c-334 3
-395 -4 -499 -53 -92 -44 -186 -134 -420 -405 l-186 -215 -3 338 -2 337 -340
0 -340 0 0 -1045z"/>
<path d="M7550 7725 l0 -1045 583 0 c320 0 616 5 657 10 452 57 709 320 662
678 -22 166 -123 312 -270 390 l-62 33 50 40 c28 22 71 65 95 97 208 262 145
591 -141 739 -187 97 -245 103 -976 103 l-598 0 0 -1045z m1118 535 c99 -56
123 -189 49 -268 -52 -56 -80 -62 -292 -62 l-195 0 0 181 0 181 198 -4 c189
-3 199 -4 240 -28z m40 -719 c71 -37 122 -113 122 -183 -1 -76 -71 -166 -147
-187 -21 -6 -131 -11 -245 -11 l-208 0 0 200 0 200 220 0 c198 0 225 -2 258
-19z"/>
<path d="M10300 8764 c-14 -2 -59 -9 -100 -15 -154 -23 -322 -91 -432 -175
-235 -181 -274 -554 -83 -785 114 -137 208 -182 610 -294 171 -48 329 -98 352
-111 91 -53 97 -164 12 -225 l-34 -24 -375 -5 c-372 -5 -375 -5 -420 -29 -65
-34 -173 -147 -279 -291 l-93 -125 544 -3 c345 -2 583 1 653 8 446 45 676 265
675 649 -1 123 -11 175 -49 252 -39 78 -76 123 -146 176 -96 73 -180 106 -521
207 -177 52 -335 101 -352 110 -96 50 -97 172 -2 221 24 12 84 15 333 15 372
0 368 -1 477 109 60 60 202 244 254 329 6 9 -96 12 -496 11 -277 -1 -514 -3
-528 -5z"/>
<path d="M14750 8385 c-102 -13 -236 -28 -298 -35 l-113 -13 6 -41 c4 -22 9
-43 11 -45 5 -6 588 61 597 69 9 8 -2 91 -12 89 -3 -1 -89 -12 -191 -24z"/>
<path d="M25 8188 c-4 -29 -5 -68 -3 -87 l3 -35 180 -62 c99 -35 184 -64 189
-66 5 -2 -51 -16 -125 -32 -74 -15 -164 -34 -201 -42 l-68 -16 0 -84 0 -84 28
0 c15 0 145 -7 290 -16 144 -9 264 -15 266 -13 2 2 6 27 10 55 l6 51 -152 8
c-84 4 -179 10 -211 13 -58 7 -57 7 153 52 229 49 226 47 218 115 -3 27 -13
31 -208 102 -198 71 -203 73 -140 68 36 -2 121 -7 190 -10 69 -3 135 -8 148
-11 21 -4 22 -1 22 50 l0 55 -52 5 c-29 3 -138 10 -243 16 -104 6 -213 13
-242 16 l-51 5 -7 -53z"/>
<path d="M14390 7730 l0 -40 241 -2 241 -3 -241 -139 -241 -139 0 -38 0 -39
78 0 c43 0 181 3 305 7 l227 6 0 38 0 39 -201 2 -201 3 201 115 201 115 0 58
0 57 -305 0 -305 0 0 -40z"/>
<path d="M512 7243 c-22 -4 -23 -8 -18 -51 3 -26 8 -88 12 -138 l6 -91 -32 -7
c-18 -3 -52 -6 -75 -6 -41 0 -43 1 -49 38 -3 20 -6 63 -6 94 0 31 -3 59 -8 61
-4 3 -28 3 -54 0 l-48 -6 7 -98 c6 -95 5 -99 -14 -99 -11 0 -41 -3 -65 -6
l-46 -6 -7 140 -7 141 -52 -6 c-28 -3 -52 -7 -53 -8 -3 -2 26 -387 29 -391 4
-4 582 37 587 42 2 2 -2 94 -9 204 l-13 200 -31 -1 c-17 -1 -41 -4 -54 -6z"/>
<path d="M14358 6825 c-4 -65 -30 -57 297 -91 165 -17 301 -30 303 -29 2 2 4
22 5 46 l2 43 -260 27 c-143 15 -279 28 -302 28 -39 1 -43 -1 -45 -24z"/>
<path d="M507 6336 c-86 -70 -161 -126 -166 -126 -5 0 -62 25 -125 57 -64 31
-118 54 -121 51 -2 -2 1 -32 7 -67 l12 -63 135 -67 c74 -37 130 -70 125 -73
-5 -3 -54 -13 -109 -23 -55 -10 -103 -20 -107 -24 -3 -3 -1 -32 5 -64 8 -44
14 -56 26 -53 9 2 140 28 291 57 151 28 277 53 278 55 2 1 -1 28 -8 58 -13 64
-13 64 -119 41 -64 -13 -66 -13 -120 14 l-54 28 117 94 118 94 -6 54 c-4 29
-10 60 -14 68 -7 11 -45 -16 -165 -111z"/>
<path d="M14392 6291 c-64 -22 -116 -70 -138 -127 -24 -62 -16 -178 13 -220
47 -66 157 -88 226 -45 23 14 61 59 103 122 37 55 75 104 85 109 51 28 104 -7
103 -67 -2 -73 -54 -133 -115 -133 -17 0 -20 -4 -15 -22 3 -13 6 -33 6 -45 0
-20 4 -22 33 -16 48 9 102 39 126 69 31 39 54 128 46 172 -20 107 -76 150
-187 144 -39 -3 -82 -44 -149 -143 -65 -96 -90 -119 -132 -119 -91 0 -106 150
-21 215 10 8 36 20 57 25 33 10 38 15 33 33 -3 12 -6 32 -6 45 0 26 -1 26 -68
3z"/>
<path d="M14050 5374 c-22 -57 -26 -55 233 -139 133 -43 245 -80 249 -82 4 -2
-4 -36 -18 -75 -13 -39 -24 -77 -24 -84 0 -15 61 -37 71 -27 15 16 136 408
129 416 -4 5 -22 10 -40 10 -32 2 -33 1 -58 -73 -14 -41 -25 -76 -26 -77 -1
-1 -111 34 -245 78 -134 43 -248 79 -253 79 -5 0 -13 -12 -18 -26z"/>
<path d="M13817 4754 c-10 -19 -15 -39 -13 -43 3 -3 56 -31 120 -60 l115 -53
-27 -55 -27 -54 -141 7 -142 7 -21 -41 c-12 -23 -21 -44 -21 -47 0 -3 39 -5
88 -5 48 0 117 -3 153 -6 l67 -7 5 -40 c10 -72 66 -126 140 -134 103 -12 141
21 220 185 32 68 57 126 54 128 -6 6 -539 254 -547 254 -3 0 -14 -16 -23 -36z
m389 -234 l72 -32 -27 -60 c-50 -116 -106 -146 -170 -92 -22 18 -31 34 -31 57
0 38 59 169 74 164 6 -3 43 -19 82 -37z"/>
<path d="M910 4614 c-179 -80 -328 -148 -332 -152 -3 -4 3 -26 15 -49 l22 -42
325 145 c179 80 328 149 332 153 8 7 -21 91 -31 91 -3 0 -152 -66 -331 -146z"/>
<path d="M13377 3913 c-12 -21 -21 -40 -20 -43 0 -3 49 -34 108 -70 l106 -65
97 -164 c53 -91 102 -166 108 -168 5 -2 20 14 32 36 l22 39 -70 117 c-38 64
-70 118 -70 121 0 6 221 -4 257 -12 17 -3 27 5 47 38 l26 43 -58 6 c-31 4
-120 10 -197 14 l-140 7 -113 69 -113 69 -22 -37z"/>
<path d="M1565 3722 c-97 -46 -113 -110 -75 -293 l23 -110 -20 -27 c-38 -51
-104 -36 -137 31 -22 48 -20 89 6 122 l22 28 -34 28 c-18 16 -37 26 -42 23
-23 -14 -48 -87 -48 -139 0 -164 169 -269 287 -179 57 43 65 124 28 264 -22
83 -19 126 10 155 15 15 36 25 54 25 54 0 121 -78 121 -142 0 -12 -10 -41 -21
-65 -21 -43 -21 -44 -3 -59 47 -36 53 -36 74 -2 43 71 40 184 -6 250 -69 98
-154 130 -239 90z"/>
<path d="M2044 2866 l-200 -174 -53 64 c-30 35 -56 64 -60 64 -3 0 -19 -11
-36 -24 l-29 -23 24 -29 c121 -143 263 -304 268 -304 4 0 20 12 35 25 l28 25
-57 66 -58 66 24 22 c278 238 370 321 370 330 0 7 -12 24 -28 39 l-27 26 -201
-173z"/>
<path d="M12637 2886 c-59 -22 -103 -61 -131 -118 -53 -107 -25 -211 88 -324
162 -162 344 -166 441 -9 25 40 30 59 30 109 0 82 -31 144 -114 227 -105 104
-224 149 -314 115z m145 -102 c62 -31 148 -115 177 -172 41 -81 16 -158 -63
-193 -40 -17 -48 -18 -90 -5 -91 28 -207 140 -235 228 -11 32 -10 43 8 82 37
85 111 107 203 60z"/>
<path d="M2604 2447 l-47 -143 -61 4 c-51 3 -66 0 -95 -20 -49 -33 -72 -69
-78 -121 -8 -70 23 -123 129 -220 49 -45 93 -83 97 -85 10 -3 405 423 409 441
1 7 -10 25 -26 40 l-29 28 -91 -97 -90 -97 -41 34 c-22 19 -41 39 -41 44 0 6
20 70 44 142 l44 131 -32 31 c-18 17 -35 31 -38 31 -4 0 -28 -64 -54 -143z
m-59 -236 c17 -10 50 -36 75 -59 l45 -41 -65 -66 -65 -66 -62 65 c-75 76 -82
109 -34 157 34 34 64 37 106 10z"/>
<path d="M12052 2334 c-17 -14 -32 -29 -32 -34 0 -5 38 -54 85 -109 47 -55 85
-101 85 -104 0 -2 -34 -32 -75 -67 -41 -35 -75 -66 -75 -69 0 -3 11 -19 24
-36 l23 -29 77 64 c42 36 80 66 84 67 4 1 30 -26 58 -61 l52 -62 -104 -87
c-57 -49 -104 -92 -104 -97 0 -5 10 -21 23 -36 l24 -27 141 119 c77 65 141
122 141 125 1 4 -350 422 -388 461 -3 4 -21 -4 -39 -18z"/>
<path d="M3288 1951 c-114 -37 -249 -209 -264 -336 -8 -68 10 -128 54 -177 75
-84 192 -103 288 -48 143 82 245 289 204 414 -34 105 -179 180 -282 147z m132
-96 c98 -50 93 -164 -11 -303 -47 -61 -120 -112 -161 -112 -70 0 -138 66 -138
134 0 81 104 241 182 279 41 21 90 21 128 2z"/>
<path d="M10873 1499 c-18 -12 -33 -24 -33 -27 0 -4 27 -55 59 -113 l60 -107
7 -201 7 -201 41 23 41 23 -4 143 c-3 121 -1 143 10 136 8 -5 62 -40 121 -77
l107 -69 40 21 c23 11 41 24 41 28 0 5 -74 55 -164 113 l-163 104 -63 113
c-35 61 -66 112 -69 112 -3 0 -21 -10 -38 -21z"/>
<path d="M4197 1310 c-32 -61 -61 -110 -64 -110 -3 0 -37 16 -77 35 -126 63
-214 56 -272 -20 -21 -28 -29 -51 -32 -94 -5 -63 9 -100 50 -138 24 -22 239
-146 244 -140 3 3 159 285 247 448 l47 87 -35 21 c-20 12 -39 21 -43 21 -4 0
-33 -50 -65 -110z m-187 -146 c41 -19 77 -37 79 -39 3 -3 -74 -153 -84 -163
-7 -8 -136 71 -150 91 -24 35 -19 81 14 116 16 17 37 31 48 31 10 0 52 -16 93
-36z"/>
<path d="M10134 1146 c-141 -66 -169 -224 -72 -417 44 -88 104 -149 166 -167
52 -16 78 -15 141 4 77 22 135 83 152 158 32 144 -70 371 -193 429 -52 25
-132 22 -194 -7z m173 -86 c89 -69 155 -258 120 -342 -31 -74 -129 -101 -198
-55 -68 46 -148 226 -135 305 16 103 134 154 213 92z"/>
<path d="M4732 1129 c-80 -40 -115 -145 -75 -222 9 -18 56 -73 105 -124 96
-99 105 -123 65 -161 -59 -56 -177 10 -177 99 0 34 -3 39 -22 39 -13 0 -33 3
-45 6 -20 6 -23 3 -23 -23 0 -62 29 -131 70 -166 127 -108 310 -54 310 93 0
58 -35 114 -117 186 -32 28 -67 67 -78 87 -18 34 -18 38 -2 71 50 105 227 26
227 -101 0 -32 1 -33 46 -33 l47 0 -7 52 c-4 28 -13 65 -20 82 -44 104 -206
165 -304 115z"/>
<path d="M9323 871 c-54 -14 -120 -59 -144 -98 -37 -59 -31 -118 35 -353 32
-113 59 -206 60 -207 2 -2 78 18 84 23 2 1 -24 101 -58 223 -40 145 -58 229
-54 246 13 52 110 104 168 89 54 -13 71 -49 131 -269 32 -116 59 -212 61 -213
8 -10 84 11 84 23 0 30 -113 423 -132 455 -29 53 -77 81 -145 85 -32 2 -72 0
-90 -4z"/>
<path d="M5990 754 c0 -11 -3 -29 -6 -41 -4 -15 -1 -23 13 -27 10 -4 29 -15
42 -25 l25 -19 -26 -39 c-30 -45 -68 -119 -68 -131 0 -8 69 -37 74 -30 1 1 15
29 31 61 15 31 32 57 36 57 9 0 79 -138 79 -156 0 -8 -4 -14 -8 -14 -18 0 -94
-58 -113 -86 -21 -33 -25 -90 -7 -128 14 -33 83 -66 135 -66 93 0 146 80 126
189 -6 31 -7 57 -3 59 32 12 103 69 120 96 24 40 27 133 5 175 -43 85 -175
126 -271 86 -35 -15 -37 -14 -75 16 -21 16 -54 33 -74 36 -30 5 -35 3 -35 -13z
m327 -121 c76 -35 72 -140 -6 -186 l-26 -15 -51 98 c-48 96 -49 99 -29 109 31
15 73 13 112 -6z"/>
<path d="M8473 674 c-3 -8 11 -126 31 -261 20 -135 33 -249 29 -253 -4 -4 -41
-12 -81 -18 -41 -6 -76 -13 -79 -15 -2 -3 -1 -22 3 -42 6 -33 9 -36 33 -32 14
3 113 18 219 33 l192 29 -6 35 c-4 19 -8 37 -11 39 -2 3 -40 0 -85 -7 -45 -6
-83 -11 -84 -9 -1 1 -19 118 -40 260 l-38 257 -39 0 c-25 0 -40 -5 -44 -16z"/>
<path d="M7814 480 l6 -140 -53 0 c-30 0 -88 -3 -130 -6 l-77 -7 0 126 c0 69
-3 132 -6 141 -4 11 -19 16 -48 16 l-42 0 3 -87 c1 -49 6 -186 9 -305 l6 -218
45 0 45 0 -3 124 -4 123 89 7 c49 3 106 6 128 6 l38 0 0 -79 c0 -43 3 -99 6
-125 l7 -46 43 0 43 0 -5 128 c-2 70 -7 207 -10 305 l-6 177 -46 0 -45 0 7
-140z"/>
</g>
</svg>
